<svg width="36" height="35" viewBox="0 0 36 35" xmlns="http://www.w3.org/2000/svg"><title>udacity_logo</title><path d="M12.499 0L.725 6.699l.001 15.43C.704 29.216 6.48 34.978 13.623 35a12.948 12.948 0 0 0 6.487-1.706l9.537-5.436c3.762-1.936 6.338-5.83 6.352-10.326L36 1.417 33.666.063l-9.563 5.36v.001L24.102 22.2a9.052 9.052 0 0 1-.221 2.118 12.392 12.392 0 0 1-.846 2.451c-.73-.05-2.27-.469-3.499-1.196a11.284 11.284 0 0 1-2.002-1.497 9.385 9.385 0 0 1-2.008-2.973 9.216 9.216 0 0 1-.542-1.75c-.124-.615-.152-1.249-.151-1.884l.008-16.114L12.499 0zm5.418 31.841c-.638.266-1.306.469-1.985.605-.698.139-1.341.209-2.06.207a10.727 10.727 0 0 1-2.135-.22 10.539 10.539 0 0 1-3.776-1.59c-1.457-1.015-2.208-1.894-2.853-2.847a10.33 10.33 0 0 1-1.58-3.754c-.14-.692-.167-1.405-.165-2.119V8.039l8.828-5.345-.011 14.768c-.017 5.612 4.148 10.296 9.467 11.428-.208.247-.358.484-.589.711-.48.474-1 .918-1.562 1.292-.567.377-.952.687-1.579.948zM33.21 19.436a9.198 9.198 0 0 1-.553 1.747c-.642 1.412-1.686 2.612-2.559 3.385-1.781 1.625-4 2.127-4.257 2.128.534-1.4.894-2.9.9-4.485L26.74 6.777l6.622-4.02.003 14.768c-.002.635-.027 1.296-.155 1.911z" fill-rule="nonzero" fill="#01B3E3"/></svg>