<?xml version="1.0" encoding="UTF-8"?>
<svg width="36px" height="35px" viewBox="0 0 36 35" version="1.1" xmlns="http://www.w3.org/2000/svg">
    <!-- Generator: Sketch 42 (36781) - http://www.bohemiancoding.com/sketch -->
    <title>udacity_logo</title>
    <desc>Created with Sketch.</desc>
    <g id="Page-1" stroke="none" stroke-width="1" fill="none" fill-rule="evenodd">
        <g id="udacity_logo" fill-rule="nonzero" fill="#01B3E3">
            <g id="logo.min">
                <g id="Group">
                    <path d="M12.4987824,0 L0.725260128,6.699 L0.726256365,22.129 L0.726256365,22.129 C0.704339163,29.216 6.47852557,34.978 13.6225371,35 C15.9846137,35.007 18.2012398,34.386 20.1100288,33.294 L20.1100288,33.294 L29.6470002,27.858 C33.408789,25.922 35.9850565,22.028 35.9990038,17.532 L36,1.417 L36,1.417 L36,1.417 L33.665818,0.063 L24.1029444,5.423 L24.1039407,5.424 L24.1039407,5.424 L24.100952,22.2 C24.0989595,22.914 24.0670799,23.436 23.8797875,24.318 C23.5609918,25.663 23.1126854,26.609 23.0339827,26.769 C22.3047377,26.719 20.7645561,26.3 19.5352004,25.573 C18.9215187,25.219 18.1912774,24.694 17.5327651,24.076 C17.1073721,23.652 16.7218286,23.185 16.3870932,22.69 C16.0493691,22.19 15.758468,21.656 15.5253487,21.103 C15.2872482,20.54 15.1049369,19.951 14.9833961,19.353 C14.8588665,18.738 14.8309719,18.104 14.8319681,17.469 L14.8319681,17.469 L14.839938,1.355 L12.4987824,0 Z M17.9173124,31.841 C17.2787248,32.107 16.6112464,32.31 15.9318132,32.446 C15.2344476,32.585 14.5908789,32.655 13.8715962,32.653 C13.1523135,32.651 12.434027,32.577 11.7366615,32.433 C11.0582245,32.293 10.3917423,32.086 9.75514722,31.816 C9.12951074,31.551 8.52579145,31.224 7.96092539,30.843 C6.50442772,29.828 5.75326544,28.949 5.10770423,27.996 C4.72714191,27.434 4.40137259,26.833 4.13736994,26.211 C3.86938233,25.578 3.66415763,24.915 3.52767323,24.242 C3.3872039,23.55 3.36130175,22.837 3.36329422,22.123 L3.36229799,8.039 L12.1909453,2.694 L12.1799867,17.462 L12.1799867,17.462 C12.1630507,23.074 16.3283153,27.758 21.6472216,28.89 C21.4390082,29.137 21.2885765,29.374 21.0584459,29.601 C20.5772637,30.075 20.0582245,30.519 19.4963471,30.893 C18.9294886,31.27 18.5439451,31.58 17.9173124,31.841 Z M33.2095417,19.436 C33.0840159,20.034 32.898716,20.621 32.6566305,21.183 C32.0150542,22.595 30.9709985,23.795 30.0982953,24.568 C28.3170246,26.193 26.0974098,26.695 25.841377,26.696 C26.3753598,25.296 26.7350011,23.796 26.7409785,22.211 L26.7409785,22.211 L26.7399823,6.777 L26.7399823,6.777 L33.3619659,2.757 L33.3649546,17.525 C33.3629621,18.16 33.3380562,18.821 33.2095417,19.436 Z" id="mark_3_"></path>
                </g>
            </g>
        </g>
    </g>
</svg>