<svg xmlns="http://www.w3.org/2000/svg" viewBox="14 33 772 734"><g fill="#FFA500"><path d="M656.996 399.867c0 141.945-115.059 256.996-256.988 256.996C258.066 656.863 143 541.812 143 399.867c0-141.938 115.066-256.996 257.008-256.996 141.93 0 256.988 115.059 256.988 256.996zm-47.117-42.832H521.18c4.734 13.398 7.32 27.816 7.32 42.832 0 70.969-57.527 128.504-128.492 128.504v85.664c118.273 0 214.16-95.891 214.16-214.168 0-14.668-1.477-28.992-4.289-42.832zm-295.543 42.832a85.288 85.288 0 0 0 11.488 42.84h148.359a85.317 85.317 0 0 0 11.48-42.84 85.277 85.277 0 0 0-11.48-42.832H325.824a85.248 85.248 0 0 0-11.488 42.832zm-35.508 42.84c-4.742-13.406-7.328-27.82-7.328-42.84 0-70.969 57.531-128.5 128.508-128.5v-85.664c-118.285 0-214.172 95.883-214.172 214.164 0 14.668 1.477 28.996 4.289 42.84h88.703zM349.965 104.258l-68.914-71.074-14.066 97.926c26.312-13.001 54.3-21.997 82.98-26.852zM157.508 223.516a301.85 301.85 0 0 1 28.207-33.402l-97.484-16.98 46.191 87.508a301.966 301.966 0 0 1 23.086-37.126zm-54.176 132.621L14.5 399.688l88.859 43.672a300.777 300.777 0 0 1-.027-87.223zm30.949 182.734l-46.258 87.445 97.492-16.898a297.715 297.715 0 0 1-51.234-70.547zm132.453 129.613l13.973 97.957 68.938-70.953a298.159 298.159 0 0 1-82.911-27.004zm183.309 26.989l68.914 71.074 14.062-97.926c-26.312 13-54.3 21.996-82.976 26.852zm261.727-68.871l-46.195-87.516a301.571 301.571 0 0 1-23.082 37.133 302.204 302.204 0 0 1-28.211 33.398l97.488 16.985zm-15.102-183l88.828-43.559-88.852-43.668a301.05 301.05 0 0 1 .024 87.227zm-30.953-182.739l46.266-87.441-97.5 16.891a297.204 297.204 0 0 1 51.234 70.55zM533.27 131.25l-13.98-97.953-68.93 70.949a297.573 297.573 0 0 1 82.91 27.004z"/></g></svg>